# xmcd
#
# Track frame offsets:
#	150
#	20543
#	35903
#	50856
#	66997
#	87235
#	106335
#	126243
#	145338
#	164558
#	191570
#	214964
#
# Disc length: 3336 seconds
#
# Revision: 0
# Processed by: cddbd v1.5.2PL0 Copyright (c) Steve Scherf et al.
# Submitted via: EasyCDDAExtractor 16.0.9.1
#
DISCID=be0d060c
DTITLE=Various Artist - AsiaCD296 - Nếu Xuân Này Em Lấy Chồng
DYEAR=2010
DGENRE=Pop
TTITLE0=Băng Tâm and Đặng Thế Luân - Đám Cưới Đầu Xuân
TTITLE1=Tường Khuê - Nếu Xuân Này Em Đi Lấy Chồng
TTITLE2=Y Phụng - Ngày Xuân Thăm Nhau
TTITLE3=Giang Tử - Tôi Chưa Có Mùa Xuân
TTITLE4=Tâm Đoan - Em Đi Chùa Hương
TTITLE5=Sơn Ca and Chí Tâm - Ngày Xuân Vui Cưới
TTITLE6=Hoàng Oanh and Trung Chỉnh - Mùa Xuân Trên Cao and Tâm Sự Ngày Xuân
TTITLE7=Hà Thanh Xuân - Khúc Hát Ân Tình
TTITLE8=Mỹ Huyền - Xuân Muộn
TTITLE9=Tường Nguyên and Thùy Dương - Ngẫu Hứng Lý Qua Cầu
TTITLE10=Vũ Khanh and Thanh Lan - Nụ Tầm Xuân
TTITLE11=Ngọc Huyền and Phượng Vũ - Tân Cổ Áo Đẹp Nàng Dâu
EXTD=
EXTT0=
EXTT1=
EXTT2=
EXTT3=
EXTT4=
EXTT5=
EXTT6=
EXTT7=
EXTT8=
EXTT9=
EXTT10=
EXTT11=
PLAYORDER=
